<?xml version="1.0" encoding="UTF-8" standalone="no"?>
<!-- Created with Inkscape (http://www.inkscape.org/) -->

<svg
   width="40mm"
   height="40mm"
   viewBox="0 0 40 40"
   version="1.1"
   id="svg21455"
   inkscape:version="1.1.1 (3bf5ae0d25, 2021-09-20, custom)"
   sodipodi:docname="gear2.svg"
   xmlns:inkscape="http://www.inkscape.org/namespaces/inkscape"
   xmlns:sodipodi="http://sodipodi.sourceforge.net/DTD/sodipodi-0.dtd"
   xmlns="http://www.w3.org/2000/svg"
   xmlns:svg="http://www.w3.org/2000/svg">
  <sodipodi:namedview
     id="namedview21457"
     pagecolor="#ffffff"
     bordercolor="#999999"
     borderopacity="1"
     inkscape:pageshadow="0"
     inkscape:pageopacity="0"
     inkscape:pagecheckerboard="0"
     inkscape:document-units="mm"
     showgrid="false"
     inkscape:zoom="0.74208053"
     inkscape:cx="396.8572"
     inkscape:cy="561.93362"
     inkscape:window-width="1920"
     inkscape:window-height="1011"
     inkscape:window-x="1280"
     inkscape:window-y="32"
     inkscape:window-maximized="1"
     inkscape:current-layer="layer1" />
  <defs
     id="defs21452" />
  <g
     inkscape:label="Layer 1"
     inkscape:groupmode="layer"
     id="layer1">
    <path
       id="path16777"
       style="fill:#eee1a6;fill-opacity:1;stroke:#000000;stroke-width:0.218574"
       d="M 19.452282,0.10928691 18.7987,1.6717503 18.614279,2.7957849 18.648398,3.2175653 16.961701,3.4395533 16.885286,3.0233228 16.416545,1.9855247 15.380458,0.64547805 14.323016,0.92893999 14.095902,2.6070947 14.209029,3.7405188 14.350764,4.1392459 12.778906,4.7902766 12.597476,4.4081939 11.876012,3.5266423 10.528705,2.5003692 9.5801272,3.0480854 9.7952868,4.7279468 10.197857,5.7934922 10.438205,6.1418449 9.0883372,7.17751 8.8142596,6.8551963 7.8891685,6.1905108 6.3220101,5.5480229 5.5476006,6.3224235 6.1905186,7.8895891 6.8552045,8.8146791 7.1770889,9.088749 6.1414231,10.438194 5.7930701,10.198276 4.7275239,9.795706 3.0476596,9.5805468 2.5003718,10.529123 3.5266449,11.876429 4.4077708,12.597893 4.7898537,12.779322 4.1388234,14.35118 3.740524,14.209024 2.6070966,14.095897 l -1.67857564,0.227105 -0.28347044,1.057863 1.34005338,1.036094 1.0382269,0.468742 0.4158045,0.076 -0.2219915,1.687124 -0.4213561,-0.03412 -1.1240345,0.183999 -1.56246629,0.654012 v 1.095005 l 1.56246629,0.653591 1.1240345,0.18442 0.4213561,-0.03412 0.2219915,1.686695 -0.4158045,0.07642 -1.0382269,0.468741 -1.34005338,1.036087 0.28347044,1.05744 1.67857564,0.227106 1.1334274,-0.113128 0.3982994,-0.141726 0.6510303,1.571849 -0.3820829,0.181438 -0.8811259,0.721464 -1.0262731,1.347306 0.5472878,0.948577 1.6798643,-0.21516 1.0655462,-0.40257 0.348353,-0.240347 1.0356658,1.349866 -0.3218844,0.274069 -0.6646859,0.925099 -0.642918,1.567157 0.7744095,0.774401 1.5671584,-0.642488 0.9250911,-0.664685 0.2740776,-0.322314 1.3498678,1.035666 -0.240348,0.348352 -0.4025702,1.065553 -0.2151596,1.679863 0.9485778,0.547709 1.347307,-1.026272 0.721464,-0.881555 0.18143,-0.382074 1.571858,0.651029 -0.141735,0.3983 -0.113127,1.133426 0.227114,1.678575 1.057442,0.28347 1.036087,-1.340053 0.468741,-1.038226 0.07641,-0.415804 1.686697,0.221992 -0.03412,0.421776 0.184421,1.123613 0.653582,1.562457 h 1.095014 l 0.654012,-1.562457 0.183991,-1.123613 -0.03412,-0.421776 1.687118,-0.221992 0.07641,0.415804 0.468741,1.038226 1.035666,1.340053 1.057871,-0.28347 0.227105,-1.678575 -0.113127,-1.133426 -0.142156,-0.3983 1.571859,-0.651029 0.18143,0.382074 0.721464,0.881555 1.347736,1.026272 0.948148,-0.547709 -0.215159,-1.679863 -0.402571,-1.065553 -0.239918,-0.348352 1.349438,-1.035666 0.27407,0.322314 0.925099,0.664685 1.567167,0.642488 0.774393,-0.774401 -0.64248,-1.567157 -0.664694,-0.925099 -0.322306,-0.274069 1.036087,-1.349866 0.347931,0.240347 1.065547,0.40257 1.679865,0.21516 0.547716,-0.948577 -1.026281,-1.347306 -0.881547,-0.721464 -0.382083,-0.181438 0.651031,-1.571849 0.398728,0.141726 1.133419,0.113128 1.678163,-0.227106 0.283462,-1.05744 -1.340054,-1.036087 -1.037797,-0.468741 -0.416225,-0.07642 0.221983,-1.686695 0.421785,0.03412 1.124035,-0.18442 1.562458,-0.653591 v -1.095005 l -1.562458,-0.654012 -1.124035,-0.183999 -0.421785,0.03412 -0.221983,-1.687124 0.416225,-0.076 1.037797,-0.468742 1.340054,-1.036094 -0.283462,-1.057863 -1.678163,-0.227105 -1.133419,0.113127 -0.398728,0.142156 -0.651031,-1.571858 0.382083,-0.181429 0.881547,-0.721464 1.026281,-1.347306 -0.54771,-0.9485762 -1.679865,0.2151592 -1.065547,0.40257 L 33.85857,10.438194 32.822483,9.088749 33.144789,8.8146791 33.80949,7.8895891 34.45197,6.3224235 33.677577,5.5480229 32.11041,6.1905108 31.185311,6.8551963 30.911241,7.17751 29.561803,6.1418449 29.801721,5.7934922 30.204292,4.7279468 30.419451,3.0480854 29.471303,2.5003692 28.123567,3.5266423 27.402103,4.4081939 27.220673,4.7902766 25.648814,4.1392459 25.79097,3.7405188 25.904097,2.6070947 25.676992,0.92893999 24.619121,0.64547805 23.583455,1.9855247 23.114714,3.0233228 23.038299,3.4395533 21.351181,3.2175653 21.385299,2.7957849 21.201308,1.6717503 20.547296,0.10928691 Z M 18.075955,7.0541392 19.645674,16.428484 A 3.6675817,3.667579 0 0 0 17.06974,17.8727 L 9.389759,12.375472 a 13.114452,13.114443 0 0 1 8.686196,-5.3213328 z m 4.521326,0.096051 a 13.114452,13.114443 0 0 1 8.826213,6.4201878 L 23.243181,18.36876 A 3.6675817,3.667579 0 0 0 20.728725,16.48313 Z M 7.4285725,16.440867 16.54636,18.843903 a 3.6675817,3.667579 0 0 0 -0.216011,1.232891 3.6675817,3.667579 0 0 0 0.756895,2.22843 l -7.3277855,5.847283 a 13.114452,13.114443 0 0 1 -2.8739111,-8.15255 13.114452,13.114443 0 0 1 0.5430251,-3.55909 z m 25.5014595,1.395542 a 13.114452,13.114443 0 0 1 0.184421,2.163548 13.114452,13.114443 0 0 1 -3.0182,8.358316 l -7.34017,-5.867348 a 3.6675817,3.667579 0 0 0 0.909305,-2.414131 3.6675817,3.667579 0 0 0 -0.06146,-0.668528 z m -12.880507,0.07129 a 2.1918746,2.191873 0 0 1 2.192142,2.192149 2.1918746,2.191873 0 0 1 -2.192142,2.191718 2.1918746,2.191873 0 0 1 -2.19172,-2.191718 2.1918746,2.191873 0 0 1 2.19172,-2.192149 z m -2.140493,5.182597 a 3.6675817,3.667579 0 0 0 2.088837,0.65402 3.6675817,3.667579 0 0 0 1.889893,-0.526379 l 4.762963,8.074012 A 13.114452,13.114443 0 0 1 20,33.114401 13.114452,13.114443 0 0 1 13.146077,31.149365 Z" />
  </g>
</svg>
