<?xml version="1.0" encoding="UTF-8" standalone="no"?>
<!-- Created with Inkscape (http://www.inkscape.org/) -->

<svg
   sodipodi:docname="gear.svg"
   id="svg16307"
   version="1.1"
   viewBox="0 0 200 200"
   height="200mm"
   width="200mm"
   inkscape:version="1.1.1 (3bf5ae0d25, 2021-09-20, custom)"
   xmlns:inkscape="http://www.inkscape.org/namespaces/inkscape"
   xmlns:sodipodi="http://sodipodi.sourceforge.net/DTD/sodipodi-0.dtd"
   xmlns="http://www.w3.org/2000/svg"
   xmlns:svg="http://www.w3.org/2000/svg">
  <sodipodi:namedview
     id="namedview16309"
     pagecolor="#ffffff"
     bordercolor="#999999"
     borderopacity="1"
     inkscape:pageshadow="0"
     inkscape:pageopacity="0"
     inkscape:pagecheckerboard="0"
     inkscape:document-units="mm"
     showgrid="false"
     inkscape:zoom="1.0494603"
     inkscape:cx="365.42591"
     inkscape:cy="484.05831"
     inkscape:window-width="1920"
     inkscape:window-height="1011"
     inkscape:window-x="1280"
     inkscape:window-y="32"
     inkscape:window-maximized="1"
     inkscape:current-layer="layer1"
     inkscape:snap-grids="false"
     inkscape:snap-to-guides="false"
     inkscape:snap-others="false"
     inkscape:object-nodes="false"
     inkscape:snap-nodes="false"
     inkscape:snap-global="false" />
  <defs
     id="defs16304" />
  <g
     inkscape:label="Layer 1"
     inkscape:groupmode="layer"
     id="layer1">
    <path
       id="path16742"
       style="fill:#eee1a6;stroke:#000000;stroke-width:0.999999;stroke-opacity:1;fill-opacity:1"
       d="M 213.7793 262.06055 L 210.78711 269.20703 L 209.94531 274.34961 L 210.10156 276.2793 L 202.38281 277.29492 L 202.03516 275.39258 L 199.89062 270.64258 L 195.15039 264.51172 L 190.31055 265.80859 L 189.27148 273.48828 L 189.78906 278.67383 L 190.43945 280.49609 L 183.24805 283.47461 L 182.41797 281.72656 L 179.11719 277.69336 L 172.95312 272.99805 L 168.61328 275.50391 L 169.59766 283.18945 L 171.43945 288.06445 L 172.53711 289.6582 L 166.36328 294.39648 L 165.10938 292.92188 L 160.87695 289.88086 L 153.70703 286.94141 L 150.16406 290.48438 L 153.10352 297.6543 L 156.14453 301.88672 L 157.61914 303.14062 L 152.88086 309.31445 L 151.28711 308.2168 L 146.41211 306.375 L 138.72656 305.39062 L 136.2207 309.73047 L 140.91602 315.89453 L 144.94922 319.19531 L 146.69727 320.02539 L 143.71875 327.2168 L 141.89453 326.56641 L 136.70898 326.04883 L 129.03125 327.08789 L 127.73438 331.92773 L 133.86523 336.66797 L 138.61328 338.8125 L 140.51758 339.16211 L 139.50195 346.87891 L 137.57227 346.72266 L 132.42969 347.56641 L 125.28125 350.55664 L 125.28125 355.56641 L 132.42969 358.55859 L 137.57227 359.40039 L 139.50195 359.24414 L 140.51758 366.96094 L 138.61328 367.31055 L 133.86523 369.45508 L 127.73438 374.19531 L 129.03125 379.03516 L 136.70898 380.07422 L 141.89453 379.55664 L 143.71875 378.90625 L 146.69727 386.09766 L 144.94922 386.92773 L 140.91602 390.22852 L 136.2207 396.39258 L 138.72656 400.73242 L 146.41211 399.74805 L 151.28711 397.90625 L 152.88086 396.80859 L 157.61914 402.98242 L 156.14453 404.23633 L 153.10352 408.46875 L 150.16406 415.63867 L 153.70703 419.18164 L 160.87695 416.24219 L 165.10938 413.20117 L 166.36328 411.72656 L 172.53711 416.46484 L 171.43945 418.05859 L 169.59766 422.93359 L 168.61328 430.61914 L 172.95312 433.125 L 179.11719 428.42969 L 182.41797 424.39648 L 183.24805 422.64844 L 190.43945 425.62695 L 189.78906 427.45117 L 189.27148 432.63477 L 190.31055 440.31445 L 195.15039 441.61133 L 199.89062 435.48047 L 202.03516 430.73047 L 202.38281 428.82812 L 210.10156 429.84375 L 209.94531 431.77344 L 210.78711 436.91602 L 213.7793 444.06445 L 218.78906 444.06445 L 221.7793 436.91602 L 222.62305 431.77344 L 222.4668 429.84375 L 230.18359 428.82812 L 230.5332 430.73047 L 232.67773 435.48047 L 237.41797 441.61133 L 242.25586 440.31445 L 243.29492 432.63477 L 242.77734 427.45117 L 242.12891 425.62695 L 249.32031 422.64844 L 250.15039 424.39648 L 253.45117 428.42969 L 259.61523 433.125 L 263.95508 430.61914 L 262.9707 422.93359 L 261.12891 418.05859 L 260.0293 416.46484 L 266.20508 411.72656 L 267.45898 413.20117 L 271.69141 416.24219 L 278.86133 419.18164 L 282.4043 415.63867 L 279.46484 408.46875 L 276.42383 404.23633 L 274.94922 402.98242 L 279.6875 396.80859 L 281.28125 397.90625 L 286.15625 399.74805 L 293.8418 400.73242 L 296.34766 396.39258 L 291.65234 390.22852 L 287.61914 386.92773 L 285.87109 386.09766 L 288.84961 378.90625 L 290.67188 379.55664 L 295.85742 380.07422 L 303.53711 379.03516 L 304.83398 374.19531 L 298.70312 369.45508 L 293.95312 367.31055 L 292.05078 366.96094 L 293.06641 359.24414 L 294.99609 359.40039 L 300.13672 358.55859 L 307.28516 355.56641 L 307.28516 350.55664 L 300.13672 347.56641 L 294.99609 346.72266 L 293.06641 346.87891 L 292.05078 339.16211 L 293.95312 338.8125 L 298.70312 336.66797 L 304.83398 331.92773 L 303.53711 327.08789 L 295.85742 326.04883 L 290.67188 326.56641 L 288.84961 327.2168 L 285.87109 320.02539 L 287.61914 319.19531 L 291.65234 315.89453 L 296.34766 309.73047 L 293.8418 305.39062 L 286.15625 306.375 L 281.28125 308.2168 L 279.6875 309.31445 L 274.94922 303.14062 L 276.42383 301.88672 L 279.46484 297.6543 L 282.4043 290.48438 L 278.86133 286.94141 L 271.69141 289.88086 L 267.45898 292.92188 L 266.20508 294.39648 L 260.0293 289.6582 L 261.12891 288.06445 L 262.9707 283.18945 L 263.95508 275.50391 L 259.61523 272.99805 L 253.45117 277.69336 L 250.15039 281.72656 L 249.32031 283.47461 L 242.12891 280.49609 L 242.77734 278.67383 L 243.29492 273.48828 L 242.25586 265.80859 L 237.41797 264.51172 L 232.67773 270.64258 L 230.5332 275.39258 L 230.18359 277.29492 L 222.4668 276.2793 L 222.62305 274.34961 L 221.7793 269.20703 L 218.78906 262.06055 L 213.7793 262.06055 z M 216.31836 282.75391 A 15.380742 15.380742 0 0 1 231.69922 298.13477 A 15.380742 15.380742 0 0 1 216.31836 313.51367 A 15.380742 15.380742 0 0 1 200.9375 298.13477 A 15.380742 15.380742 0 0 1 216.31836 282.75391 z M 247.47852 305.51367 A 4.3839928 4.3839928 0 0 1 249.48242 306.57812 A 4.3839928 4.3839928 0 0 1 249.69922 312.77539 A 4.3839928 4.3839928 0 0 1 243.50195 312.99023 A 4.3839928 4.3839928 0 0 1 243.28711 306.79492 A 4.3839928 4.3839928 0 0 1 247.47852 305.51367 z M 186.93359 305.59766 A 4.3839917 4.3839917 0 0 1 187.9082 305.70898 A 4.3839917 4.3839917 0 0 1 189.91211 306.77539 A 4.3839917 4.3839917 0 0 1 190.12891 312.9707 A 4.3839917 4.3839917 0 0 1 183.93164 313.1875 A 4.3839917 4.3839917 0 0 1 183.7168 306.99023 A 4.3839917 4.3839917 0 0 1 186.93359 305.59766 z M 262.39844 319.40625 A 4.3839926 4.3839926 0 0 1 263.53711 319.51562 A 4.3839926 4.3839926 0 0 1 265.54102 320.58203 A 4.3839926 4.3839926 0 0 1 265.75586 326.77734 A 4.3839926 4.3839926 0 0 1 259.56055 326.99414 A 4.3839926 4.3839926 0 0 1 259.34375 320.79688 A 4.3839926 4.3839926 0 0 1 262.39844 319.40625 z M 216.2832 319.76953 A 33.29193 33.29193 0 0 1 249.57617 353.0625 A 33.29193 33.29193 0 0 1 216.2832 386.35352 A 33.29193 33.29193 0 0 1 182.99219 353.0625 A 33.29193 33.29193 0 0 1 216.2832 319.76953 z M 172.76758 321.6582 A 4.3839918 4.3839918 0 0 1 173.90625 321.76758 A 4.3839918 4.3839918 0 0 1 175.91016 322.83203 A 4.3839918 4.3839918 0 0 1 176.125 329.0293 A 4.3839918 4.3839918 0 0 1 169.92969 329.24414 A 4.3839918 4.3839918 0 0 1 169.71484 323.04883 A 4.3839918 4.3839918 0 0 1 172.76758 321.6582 z M 161.47852 337.5918 A 15.380742 15.380742 0 0 1 176.85938 352.97266 A 15.380742 15.380742 0 0 1 161.47852 368.35352 A 15.380742 15.380742 0 0 1 146.09766 352.97266 A 15.380742 15.380742 0 0 1 161.47852 337.5918 z M 271.1582 337.5918 A 15.380742 15.380742 0 0 1 286.53906 352.97266 A 15.380742 15.380742 0 0 1 271.1582 368.35352 A 15.380742 15.380742 0 0 1 255.77734 352.97266 A 15.380742 15.380742 0 0 1 271.1582 337.5918 z M 262.75781 378.97266 A 4.3839924 4.3839924 0 0 1 263.73242 379.08594 A 4.3839924 4.3839924 0 0 1 265.73633 380.15039 A 4.3839924 4.3839924 0 0 1 265.95117 386.34766 A 4.3839924 4.3839924 0 0 1 259.75586 386.5625 A 4.3839924 4.3839924 0 0 1 259.53906 380.36719 A 4.3839924 4.3839924 0 0 1 262.75781 378.97266 z M 173.12695 381.22461 A 4.383992 4.383992 0 0 1 174.10156 381.33594 A 4.383992 4.383992 0 0 1 176.10547 382.40234 A 4.383992 4.383992 0 0 1 176.32227 388.59766 A 4.383992 4.383992 0 0 1 170.125 388.81445 A 4.383992 4.383992 0 0 1 169.91016 382.61719 A 4.383992 4.383992 0 0 1 173.12695 381.22461 z M 216.31836 392.43164 A 15.380742 15.380742 0 0 1 231.69922 407.8125 A 15.380742 15.380742 0 0 1 216.31836 423.19336 A 15.380742 15.380742 0 0 1 200.9375 407.8125 A 15.380742 15.380742 0 0 1 216.31836 392.43164 z M 248.75586 395.0293 A 4.3839925 4.3839925 0 0 1 249.73047 395.14258 A 4.3839925 4.3839925 0 0 1 251.73242 396.20898 A 4.3839925 4.3839925 0 0 1 251.94922 402.4043 A 4.3839925 4.3839925 0 0 1 245.75391 402.62109 A 4.3839925 4.3839925 0 0 1 245.53711 396.42383 A 4.3839925 4.3839925 0 0 1 248.75586 395.0293 z M 189.02148 395.23047 A 4.3839921 4.3839921 0 0 1 190.16016 395.33984 A 4.3839921 4.3839921 0 0 1 192.16406 396.4043 A 4.3839921 4.3839921 0 0 1 192.37891 402.60156 A 4.3839921 4.3839921 0 0 1 186.18359 402.81641 A 4.3839921 4.3839921 0 0 1 185.9668 396.62109 A 4.3839921 4.3839921 0 0 1 189.02148 395.23047 z "
       transform="scale(0.26458333)" />
    <path
       id="path16771"
       style="fill:#eee1a6;stroke:#000000;stroke-width:0.999999;fill-opacity:1"
       d="M 213.41797 51.425781 L 210.42773 58.574219 L 209.58398 63.716797 L 209.74023 65.644531 L 202.02344 66.660156 L 201.67383 64.757812 L 199.5293 60.007812 L 194.78906 53.876953 L 189.95117 55.173828 L 188.91211 62.853516 L 189.42969 68.039062 L 190.07812 69.861328 L 182.88672 72.839844 L 182.05664 71.091797 L 178.75586 67.060547 L 172.5918 62.365234 L 168.25195 64.869141 L 169.23633 72.556641 L 171.07812 77.431641 L 172.17773 79.023438 L 166.00195 83.761719 L 164.74805 82.289062 L 160.51562 79.248047 L 153.3457 76.306641 L 149.80273 79.849609 L 152.74414 87.019531 L 155.7832 91.251953 L 157.25781 92.505859 L 152.51953 98.681641 L 150.92578 97.582031 L 146.05078 95.740234 L 138.36523 94.757812 L 135.86133 99.095703 L 140.55664 105.25977 L 144.58789 108.56055 L 146.33594 109.39062 L 143.35742 116.58203 L 141.53516 115.93359 L 136.34961 115.41602 L 128.66992 116.45508 L 127.37305 121.29492 L 133.50391 126.0332 L 138.25391 128.17773 L 140.15625 128.52734 L 139.14062 136.24414 L 137.21289 136.08984 L 132.07031 136.93164 L 124.92188 139.92188 L 124.92188 144.93164 L 132.07031 147.92383 L 137.21289 148.76562 L 139.14062 148.61133 L 140.15625 156.32812 L 138.25391 156.67773 L 133.50391 158.82227 L 127.37305 163.56055 L 128.66992 168.40039 L 136.34961 169.43945 L 141.53516 168.92188 L 143.35742 168.27344 L 146.33594 175.46484 L 144.58789 176.29297 L 140.55664 179.59375 L 135.86133 185.75977 L 138.36523 190.09766 L 146.05078 189.11328 L 150.92578 187.27148 L 152.51953 186.17383 L 157.25781 192.34766 L 155.7832 193.60352 L 152.74414 197.83398 L 149.80273 205.00391 L 153.3457 208.54688 L 160.51562 205.60742 L 164.74805 202.56641 L 166.00195 201.09375 L 172.17773 205.83203 L 171.07812 207.42383 L 169.23633 212.29883 L 168.25195 219.98438 L 172.5918 222.49023 L 178.75586 217.79492 L 182.05664 213.76172 L 182.88672 212.01367 L 190.07812 214.99414 L 189.42969 216.81641 L 188.91211 222.00195 L 189.95117 229.67969 L 194.78906 230.97656 L 199.5293 224.8457 L 201.67383 220.09766 L 202.02344 218.19336 L 209.74023 219.20898 L 209.58398 221.13867 L 210.42773 226.28125 L 213.41797 233.42969 L 218.42773 233.42969 L 221.41992 226.28125 L 222.26172 221.13867 L 222.10547 219.20898 L 229.82422 218.19336 L 230.17188 220.09766 L 232.31836 224.8457 L 237.05664 230.97656 L 241.89648 229.67969 L 242.93555 222.00195 L 242.41797 216.81641 L 241.76758 214.99414 L 248.95898 212.01367 L 249.78906 213.76172 L 253.08984 217.79492 L 259.25391 222.49023 L 263.59375 219.98438 L 262.60938 212.29883 L 260.76758 207.42383 L 259.66992 205.83203 L 265.84375 201.09375 L 267.09766 202.56641 L 271.33008 205.60742 L 278.5 208.54688 L 282.04297 205.00391 L 279.10352 197.83398 L 276.0625 193.60352 L 274.58789 192.34766 L 279.32617 186.17383 L 280.91992 187.27148 L 285.79492 189.11328 L 293.48047 190.09766 L 295.98633 185.75977 L 291.29102 179.59375 L 287.25781 176.29297 L 285.50977 175.46484 L 288.48828 168.27344 L 290.3125 168.92188 L 295.49805 169.43945 L 303.17578 168.40039 L 304.47266 163.56055 L 298.3418 158.82227 L 293.59375 156.67773 L 291.68945 156.32812 L 292.70508 148.61133 L 294.63477 148.76562 L 299.77734 147.92383 L 306.92578 144.93164 L 306.92578 139.92188 L 299.77734 136.93164 L 294.63477 136.08984 L 292.70508 136.24414 L 291.68945 128.52734 L 293.59375 128.17773 L 298.3418 126.0332 L 304.47266 121.29492 L 303.17578 116.45508 L 295.49805 115.41602 L 290.3125 115.93359 L 288.48828 116.58203 L 285.50977 109.39062 L 287.25781 108.56055 L 291.29102 105.25977 L 295.98633 99.095703 L 293.48047 94.757812 L 285.79492 95.740234 L 280.91992 97.582031 L 279.32617 98.681641 L 274.58789 92.505859 L 276.0625 91.251953 L 279.10352 87.019531 L 282.04297 79.849609 L 278.5 76.306641 L 271.33008 79.248047 L 267.09766 82.289062 L 265.84375 83.761719 L 259.66992 79.023438 L 260.76758 77.431641 L 262.60938 72.556641 L 263.59375 64.869141 L 259.25391 62.365234 L 253.08984 67.060547 L 249.78906 71.091797 L 248.95898 72.839844 L 241.76758 69.861328 L 242.41797 68.039062 L 242.93555 62.853516 L 241.89648 55.173828 L 237.05664 53.876953 L 232.31836 60.007812 L 230.17188 64.757812 L 229.82422 66.660156 L 222.10547 65.644531 L 222.26172 63.716797 L 221.41992 58.574219 L 218.42773 51.425781 L 213.41797 51.425781 z M 215.92383 108.44141 A 33.98675 33.98675 0 0 1 249.91016 142.42773 A 33.98675 33.98675 0 0 1 215.92383 176.41406 A 33.98675 33.98675 0 0 1 181.93555 142.42773 A 33.98675 33.98675 0 0 1 215.92383 108.44141 z "
       transform="scale(0.26458333)" />
    <path
       id="path16777"
       style="fill:#eee1a6;stroke:#000000;stroke-width:0.999999;fill-opacity:1"
       d="M 448.92773 258.78906 L 445.9375 265.9375 L 445.09375 271.08008 L 445.25 273.00977 L 437.5332 274.02539 L 437.18359 272.12109 L 435.03906 267.37305 L 430.29883 261.24219 L 425.46094 262.53906 L 424.42188 270.2168 L 424.93945 275.40234 L 425.58789 277.22656 L 418.39648 280.20508 L 417.56641 278.45703 L 414.26562 274.42383 L 408.10156 269.72852 L 403.76172 272.23438 L 404.74609 279.91992 L 406.58789 284.79492 L 407.6875 286.38867 L 401.51172 291.12695 L 400.25781 289.65234 L 396.02539 286.61133 L 388.85547 283.67188 L 385.3125 287.21484 L 388.25391 294.38477 L 391.29492 298.61719 L 392.76758 299.87109 L 388.0293 306.04492 L 386.43555 304.94727 L 381.56055 303.10547 L 373.875 302.12109 L 371.37109 306.46094 L 376.06641 312.625 L 380.09766 315.92578 L 381.8457 316.75586 L 378.86719 323.94727 L 377.04492 323.29688 L 371.85938 322.7793 L 364.17969 323.81836 L 362.88281 328.6582 L 369.01367 333.39844 L 373.76367 335.54297 L 375.66602 335.89062 L 374.65039 343.60938 L 372.72266 343.45312 L 367.58008 344.29492 L 360.43164 347.28711 L 360.43164 352.29688 L 367.58008 355.28711 L 372.72266 356.13086 L 374.65039 355.97461 L 375.66602 363.69141 L 373.76367 364.04102 L 369.01367 366.18555 L 362.88281 370.92578 L 364.17969 375.76367 L 371.85938 376.80273 L 377.04492 376.28516 L 378.86719 375.63672 L 381.8457 382.82812 L 380.09766 383.6582 L 376.06641 386.95898 L 371.37109 393.12305 L 373.875 397.46289 L 381.56055 396.47852 L 386.43555 394.63672 L 388.0293 393.53711 L 392.76758 399.71289 L 391.29492 400.9668 L 388.25391 405.19922 L 385.3125 412.36914 L 388.85547 415.91211 L 396.02539 412.97266 L 400.25781 409.93164 L 401.51172 408.45703 L 407.6875 413.19531 L 406.58789 414.78906 L 404.74609 419.66406 L 403.76172 427.34961 L 408.10156 429.85547 L 414.26562 425.16016 L 417.56641 421.12695 L 418.39648 419.37891 L 425.58789 422.35742 L 424.93945 424.17969 L 424.42188 429.36523 L 425.46094 437.04492 L 430.29883 438.3418 L 435.03906 432.21094 L 437.18359 427.46094 L 437.5332 425.55859 L 445.25 426.57422 L 445.09375 428.50391 L 445.9375 433.64453 L 448.92773 440.79297 L 453.9375 440.79297 L 456.92969 433.64453 L 457.77148 428.50391 L 457.61523 426.57422 L 465.33398 425.55859 L 465.68359 427.46094 L 467.82812 432.21094 L 472.56641 438.3418 L 477.40625 437.04492 L 478.44531 429.36523 L 477.92773 424.17969 L 477.27734 422.35742 L 484.46875 419.37891 L 485.29883 421.12695 L 488.59961 425.16016 L 494.76562 429.85547 L 499.10352 427.34961 L 498.11914 419.66406 L 496.27734 414.78906 L 495.17969 413.19531 L 501.35352 408.45703 L 502.60742 409.93164 L 506.83984 412.97266 L 514.00977 415.91211 L 517.55273 412.36914 L 514.61328 405.19922 L 511.57227 400.9668 L 510.09766 399.71289 L 514.83789 393.53711 L 516.42969 394.63672 L 521.30469 396.47852 L 528.99023 397.46289 L 531.49609 393.12305 L 526.80078 386.95898 L 522.76758 383.6582 L 521.01953 382.82812 L 523.99805 375.63672 L 525.82227 376.28516 L 531.00781 376.80273 L 538.68555 375.76367 L 539.98242 370.92578 L 533.85156 366.18555 L 529.10352 364.04102 L 527.19922 363.69141 L 528.21484 355.97461 L 530.14453 356.13086 L 535.28711 355.28711 L 542.43555 352.29688 L 542.43555 347.28711 L 535.28711 344.29492 L 530.14453 343.45312 L 528.21484 343.60938 L 527.19922 335.89062 L 529.10352 335.54297 L 533.85156 333.39844 L 539.98242 328.6582 L 538.68555 323.81836 L 531.00781 322.7793 L 525.82227 323.29688 L 523.99805 323.94727 L 521.01953 316.75586 L 522.76758 315.92578 L 526.80078 312.625 L 531.49609 306.46094 L 528.99023 302.12109 L 521.30469 303.10547 L 516.42969 304.94727 L 514.83789 306.04492 L 510.09766 299.87109 L 511.57227 298.61719 L 514.61328 294.38477 L 517.55273 287.21484 L 514.00977 283.67188 L 506.83984 286.61133 L 502.60742 289.65234 L 501.35352 291.12695 L 495.17969 286.38867 L 496.27734 284.79492 L 498.11914 279.91992 L 499.10352 272.23438 L 494.76562 269.72852 L 488.59961 274.42383 L 485.29883 278.45703 L 484.46875 280.20508 L 477.27734 277.22656 L 477.92773 275.40234 L 478.44531 270.2168 L 477.40625 262.53906 L 472.56641 261.24219 L 467.82812 267.37305 L 465.68359 272.12109 L 465.33398 274.02539 L 457.61523 273.00977 L 457.77148 271.08008 L 456.92969 265.9375 L 453.9375 258.78906 L 448.92773 258.78906 z M 442.63086 290.5625 L 449.8125 333.45117 A 16.779572 16.779572 0 0 0 438.02734 340.05859 L 402.89062 314.9082 A 59.999997 59.999997 0 0 1 442.63086 290.5625 z M 463.31641 291.00195 A 59.999997 59.999997 0 0 1 503.69727 320.375 L 466.27148 342.32812 A 16.779572 16.779572 0 0 0 454.76758 333.70117 L 463.31641 291.00195 z M 393.91797 333.50781 L 435.63281 344.50195 A 16.779572 16.779572 0 0 0 434.64453 350.14258 A 16.779572 16.779572 0 0 0 438.10742 360.33789 L 404.58203 387.08984 A 59.999997 59.999997 0 0 1 391.43359 349.79102 A 59.999997 59.999997 0 0 1 393.91797 333.50781 z M 510.58984 339.89258 A 59.999997 59.999997 0 0 1 511.43359 349.79102 A 59.999997 59.999997 0 0 1 497.625 388.03125 L 464.04297 361.1875 A 16.779572 16.779572 0 0 0 468.20312 350.14258 A 16.779572 16.779572 0 0 0 467.92188 347.08398 L 510.58984 339.89258 z M 451.66016 340.21875 A 10.028057 10.028057 0 0 1 461.68945 350.24805 A 10.028057 10.028057 0 0 1 451.66016 360.27539 A 10.028057 10.028057 0 0 1 441.63281 350.24805 A 10.028057 10.028057 0 0 1 451.66016 340.21875 z M 441.86719 363.92969 A 16.779572 16.779572 0 0 0 451.42383 366.92188 A 16.779572 16.779572 0 0 0 460.07031 364.51367 L 481.86133 401.45312 A 59.999997 59.999997 0 0 1 451.43359 409.79102 A 59.999997 59.999997 0 0 1 420.07617 400.80078 L 441.86719 363.92969 z "
       transform="scale(0.26458333)" />
    <path
       id="path16795"
       style="fill:#eee1a6;stroke:#000000;stroke-width:0.999999;fill-opacity:1;stroke-opacity:1"
       d="M 442.6875 45.798828 L 439.69727 52.947266 L 438.85352 58.089844 L 439.00977 60.019531 L 431.29297 61.035156 L 430.94336 59.130859 L 428.79883 54.382812 L 424.05859 48.251953 L 419.2207 49.548828 L 418.18164 57.226562 L 418.69922 62.412109 L 419.34766 64.236328 L 412.15625 67.214844 L 411.32617 65.466797 L 408.02539 61.433594 L 401.86133 56.738281 L 397.52148 59.244141 L 398.50586 66.929688 L 400.34766 71.804688 L 401.44727 73.398438 L 395.27148 78.136719 L 394.01758 76.662109 L 389.78516 73.621094 L 382.61523 70.681641 L 379.07227 74.224609 L 382.01172 81.394531 L 385.05273 85.626953 L 386.52734 86.880859 L 381.78906 93.054688 L 380.19531 91.957031 L 375.32031 90.115234 L 367.63477 89.130859 L 365.12891 93.470703 L 369.82422 99.634766 L 373.85742 102.93555 L 375.60547 103.76562 L 372.62695 110.95703 L 370.80469 110.30664 L 365.61914 109.78906 L 357.93945 110.82812 L 356.64258 115.66797 L 362.77344 120.4082 L 367.52344 122.55273 L 369.42578 122.90039 L 368.41016 130.61914 L 366.48047 130.46289 L 361.33984 131.30469 L 354.19141 134.29688 L 354.19141 139.30664 L 361.33984 142.29688 L 366.48047 143.14062 L 368.41016 142.98438 L 369.42578 150.70117 L 367.52344 151.05078 L 362.77344 153.19531 L 356.64258 157.93555 L 357.93945 162.77344 L 365.61914 163.8125 L 370.80469 163.29492 L 372.62695 162.64648 L 375.60547 169.83789 L 373.85742 170.66797 L 369.82422 173.96875 L 365.12891 180.13281 L 367.63477 184.47266 L 375.32031 183.48828 L 380.19531 181.64648 L 381.78906 180.54688 L 386.52734 186.72266 L 385.05273 187.97656 L 382.01172 192.20898 L 379.07227 199.37891 L 382.61523 202.92188 L 389.78516 199.98242 L 394.01758 196.94141 L 395.27148 195.4668 L 401.44727 200.20508 L 400.34766 201.79883 L 398.50586 206.67383 L 397.52148 214.35938 L 401.86133 216.86523 L 408.02539 212.16992 L 411.32617 208.13672 L 412.15625 206.38867 L 419.34766 209.36719 L 418.69922 211.18945 L 418.18164 216.375 L 419.2207 224.05469 L 424.05859 225.35156 L 428.79883 219.2207 L 430.94336 214.4707 L 431.29297 212.56836 L 439.00977 213.58398 L 438.85352 215.51367 L 439.69727 220.6543 L 442.6875 227.80273 L 447.69727 227.80273 L 450.68945 220.6543 L 451.53125 215.51367 L 451.375 213.58398 L 459.09375 212.56836 L 459.44141 214.4707 L 461.58789 219.2207 L 466.32617 225.35156 L 471.16602 224.05469 L 472.20508 216.375 L 471.6875 211.18945 L 471.03711 209.36719 L 478.22852 206.38867 L 479.05859 208.13672 L 482.35938 212.16992 L 488.52344 216.86523 L 492.86328 214.35938 L 491.87891 206.67383 L 490.03711 201.79883 L 488.93945 200.20508 L 495.11328 195.4668 L 496.36719 196.94141 L 500.59961 199.98242 L 507.76953 202.92188 L 511.3125 199.37891 L 508.37305 192.20898 L 505.33203 187.97656 L 503.85742 186.72266 L 508.5957 180.54688 L 510.18945 181.64648 L 515.06445 183.48828 L 522.75 184.47266 L 525.25586 180.13281 L 520.56055 173.96875 L 516.52734 170.66797 L 514.7793 169.83789 L 517.75781 162.64648 L 519.58203 163.29492 L 524.76758 163.8125 L 532.44531 162.77344 L 533.74219 157.93555 L 527.61133 153.19531 L 522.86328 151.05078 L 520.95898 150.70117 L 521.97461 142.98438 L 523.9043 143.14062 L 529.04688 142.29688 L 536.19531 139.30664 L 536.19531 134.29688 L 529.04688 131.30469 L 523.9043 130.46289 L 521.97461 130.61914 L 520.95898 122.90039 L 522.86328 122.55273 L 527.61133 120.4082 L 533.74219 115.66797 L 532.44531 110.82812 L 524.76758 109.78906 L 519.58203 110.30664 L 517.75781 110.95703 L 514.7793 103.76562 L 516.52734 102.93555 L 520.56055 99.634766 L 525.25586 93.470703 L 522.75 89.130859 L 515.06445 90.115234 L 510.18945 91.957031 L 508.5957 93.054688 L 503.85742 86.880859 L 505.33203 85.626953 L 508.37305 81.394531 L 511.3125 74.224609 L 507.76953 70.681641 L 500.59961 73.621094 L 496.36719 76.662109 L 495.11328 78.136719 L 488.93945 73.398438 L 490.03711 71.804688 L 491.87891 66.929688 L 492.86328 59.244141 L 488.52344 56.738281 L 482.35938 61.433594 L 479.05859 65.466797 L 478.22852 67.214844 L 471.03711 64.236328 L 471.6875 62.412109 L 472.20508 57.226562 L 471.16602 49.548828 L 466.32617 48.251953 L 461.58789 54.382812 L 459.44141 59.130859 L 459.09375 61.035156 L 451.375 60.019531 L 451.53125 58.089844 L 450.68945 52.947266 L 447.69727 45.798828 L 442.6875 45.798828 z M 439.6875 77.283203 L 439.6875 114.57227 A 22.200305 22.200305 0 0 0 424.61328 129.73828 L 385.8125 129.73828 A 59.999997 59.999997 0 0 1 439.6875 77.283203 z M 452.36914 77.429688 A 59.999997 59.999997 0 0 1 504.57422 129.73828 L 467.27539 129.73828 A 22.200305 22.200305 0 0 0 452.36914 114.61914 L 452.36914 77.429688 z M 446.54492 124.25586 A 11.189979 11.189979 0 0 1 457.73438 135.44727 A 11.189979 11.189979 0 0 1 446.54492 146.63672 A 11.189979 11.189979 0 0 1 435.35547 135.44727 A 11.189979 11.189979 0 0 1 446.54492 124.25586 z M 385.68555 142.42188 L 424.72852 142.42188 A 22.200305 22.200305 0 0 0 439.6875 157.15625 L 439.6875 196.31836 A 59.999997 59.999997 0 0 1 385.68555 142.42188 z M 467.14844 142.42188 L 504.70117 142.42188 A 59.999997 59.999997 0 0 1 452.36914 196.17188 L 452.36914 157.10938 A 22.200305 22.200305 0 0 0 467.14844 142.42188 z "
       transform="scale(0.26458333)" />
    <path
       id="path21676"
       style="fill:#eee1a6;stroke:#000000;stroke-width:0.264583;fill-opacity:1"
       d="m 89.457434,142.40953 -0.875914,1.93528 -0.06666,0.68626 0.171566,1.16944 -2.07119,0.555 -0.436149,-1.09864 -0.400492,-0.5612 -1.72651,-1.23765 -0.995807,0.57516 0.208775,2.11356 0.285253,0.62787 0.733806,0.92708 -1.516187,1.51618 -0.927592,-0.7338 -0.627351,-0.28526 -2.114085,-0.20877 -0.57464,0.99581 1.237649,1.72651 0.560689,0.40049 1.099159,0.43615 -0.555006,2.07171 -1.169953,-0.17209 -0.686263,0.0667 -1.934766,0.87644 v 1.1498 l 1.934766,0.87591 0.686263,0.0667 1.169953,-0.17156 0.555006,2.07119 -1.099159,0.43615 -0.560689,0.40101 -1.237649,1.72599 0.57464,0.99632 2.114085,-0.20929 0.627351,-0.28525 0.927592,-0.7338 1.516187,1.5167 -0.733806,0.92707 -0.285253,0.62736 -0.208775,2.11408 0.995807,0.57516 1.72651,-1.23817 0.400492,-0.56069 0.436149,-1.09916 2.07119,0.55501 -0.171566,1.16995 0.06666,0.68627 0.875914,1.93528 h 1.150318 l 0.875917,-1.93528 0.06666,-0.68627 -0.171566,-1.16995 2.071193,-0.55501 0.436147,1.09916 0.40101,0.56069 1.725994,1.23817 0.995804,-0.57516 -0.208772,-2.11408 -0.285255,-0.62736 -0.733806,-0.92707 1.516187,-1.5167 0.927592,0.7338 0.627353,0.28525 2.11408,0.20929 0.57516,-0.99632 -1.23817,-1.72599 -0.560686,-0.40101 -1.099158,-0.43615 0.555005,-2.07119 1.169959,0.17156 0.68626,-0.0667 1.93528,-0.87591 v -1.1498 l -1.93528,-0.87644 -0.68626,-0.0667 -1.169959,0.17209 -0.555005,-2.07171 1.099158,-0.43615 0.560686,-0.40049 1.23817,-1.72651 -0.57516,-0.99581 -2.11408,0.20877 -0.627353,0.28526 -0.927592,0.7338 -1.516187,-1.51618 0.733806,-0.92708 0.285255,-0.62787 0.208772,-2.11356 -0.995804,-0.57516 -1.725994,1.23765 -0.40101,0.5612 -0.436147,1.09864 -2.071193,-0.555 0.171566,-1.16944 -0.06666,-0.68626 -0.875917,-1.93528 z m 0.575159,7.35717 a 5.5997448,5.5997448 0 0 1 5.599658,5.59966 5.5997448,5.5997448 0 0 1 -5.599658,5.59966 5.5997448,5.5997448 0 0 1 -5.599657,-5.59966 5.5997448,5.5997448 0 0 1 5.599657,-5.59966 z" />
  </g>
</svg>
