<?xml version="1.0" encoding="UTF-8" standalone="no"?>
<!-- Created with Inkscape (http://www.inkscape.org/) -->

<svg
   width="40mm"
   height="40mm"
   viewBox="0 0 40 40"
   version="1.1"
   id="svg21330"
   inkscape:version="1.1.1 (3bf5ae0d25, 2021-09-20, custom)"
   sodipodi:docname="gear1.svg"
   xmlns:inkscape="http://www.inkscape.org/namespaces/inkscape"
   xmlns:sodipodi="http://sodipodi.sourceforge.net/DTD/sodipodi-0.dtd"
   xmlns="http://www.w3.org/2000/svg"
   xmlns:svg="http://www.w3.org/2000/svg">
  <sodipodi:namedview
     id="namedview21332"
     pagecolor="#ffffff"
     bordercolor="#999999"
     borderopacity="1"
     inkscape:pageshadow="0"
     inkscape:pageopacity="0"
     inkscape:pagecheckerboard="0"
     inkscape:document-units="mm"
     showgrid="false"
     inkscape:zoom="4.1978414"
     inkscape:cx="74.204805"
     inkscape:cy="91.237368"
     inkscape:window-width="1920"
     inkscape:window-height="1011"
     inkscape:window-x="1280"
     inkscape:window-y="32"
     inkscape:window-maximized="1"
     inkscape:current-layer="layer1" />
  <defs
     id="defs21327" />
  <g
     inkscape:label="Layer 1"
     inkscape:groupmode="layer"
     id="layer1">
    <path
       id="path16795"
       style="fill:#eee1a6;fill-opacity:1;stroke:#000000;stroke-width:0.826106;stroke-opacity:1"
       d="M 73.519531 0.41210938 L 71.050781 6.3183594 L 70.353516 10.566406 L 70.482422 12.160156 L 64.107422 13 L 63.818359 11.425781 L 62.046875 7.5039062 L 58.130859 2.4394531 L 54.134766 3.5117188 L 53.275391 9.8535156 L 53.703125 14.136719 L 54.238281 15.644531 L 48.298828 18.105469 L 47.613281 16.660156 L 44.884766 13.328125 L 39.792969 9.4492188 L 36.208984 11.519531 L 37.021484 17.869141 L 38.542969 21.896484 L 39.451172 23.212891 L 34.349609 27.126953 L 33.314453 25.910156 L 29.816406 23.396484 L 23.894531 20.96875 L 20.966797 23.896484 L 23.396484 29.818359 L 25.908203 33.314453 L 27.126953 34.351562 L 23.210938 39.451172 L 21.894531 38.544922 L 17.867188 37.023438 L 11.519531 36.208984 L 9.4492188 39.794922 L 13.328125 44.886719 L 16.660156 47.613281 L 18.103516 48.298828 L 15.642578 54.240234 L 14.136719 53.703125 L 9.8535156 53.275391 L 3.5097656 54.134766 L 2.4375 58.132812 L 7.5019531 62.048828 L 11.427734 63.820312 L 12.998047 64.107422 L 12.160156 70.484375 L 10.564453 70.355469 L 6.3183594 71.050781 L 0.41210938 73.521484 L 0.41210938 77.660156 L 6.3183594 80.130859 L 10.564453 80.828125 L 12.160156 80.699219 L 12.998047 87.074219 L 11.427734 87.363281 L 7.5019531 89.134766 L 2.4375 93.050781 L 3.5097656 97.046875 L 9.8535156 97.904297 L 14.136719 97.478516 L 15.642578 96.941406 L 18.103516 102.88281 L 16.660156 103.56836 L 13.328125 106.29492 L 9.4492188 111.38672 L 11.519531 114.97266 L 17.867188 114.16016 L 21.894531 112.63867 L 23.210938 111.73047 L 27.126953 116.83203 L 25.908203 117.86719 L 23.396484 121.36328 L 20.966797 127.28711 L 23.894531 130.21289 L 29.816406 127.78516 L 33.314453 125.27344 L 34.349609 124.05469 L 39.451172 127.96875 L 38.542969 129.28516 L 37.021484 133.3125 L 36.208984 139.66211 L 39.792969 141.73242 L 44.884766 137.85352 L 47.613281 134.52148 L 48.298828 133.07812 L 54.238281 135.53906 L 53.703125 137.04297 L 53.275391 141.32812 L 54.134766 147.67188 L 58.130859 148.74219 L 62.046875 143.67773 L 63.818359 139.75391 L 64.107422 138.18359 L 70.482422 139.02148 L 70.353516 140.61523 L 71.050781 144.86328 L 73.519531 150.76758 L 77.658203 150.76758 L 80.130859 144.86328 L 80.826172 140.61523 L 80.697266 139.02148 L 87.074219 138.18359 L 87.361328 139.75391 L 89.134766 143.67773 L 93.048828 148.74219 L 97.046875 147.67188 L 97.904297 141.32812 L 97.478516 137.04297 L 96.939453 135.53906 L 102.88086 133.07812 L 103.56641 134.52148 L 106.29297 137.85352 L 111.38672 141.73242 L 114.9707 139.66211 L 114.1582 133.3125 L 112.63672 129.28516 L 111.73047 127.96875 L 116.83008 124.05469 L 117.86523 125.27344 L 121.36133 127.78516 L 127.28516 130.21289 L 130.21289 127.28711 L 127.7832 121.36328 L 125.27148 117.86719 L 124.05273 116.83203 L 127.9668 111.73047 L 129.28516 112.63867 L 133.3125 114.16016 L 139.66016 114.97266 L 141.73047 111.38672 L 137.85156 106.29492 L 134.51953 103.56836 L 133.07617 102.88281 L 135.53711 96.941406 L 137.04297 97.478516 L 141.32812 97.904297 L 147.66992 97.046875 L 148.74219 93.050781 L 143.67578 89.134766 L 139.75391 87.363281 L 138.18164 87.074219 L 139.01953 80.699219 L 140.61523 80.828125 L 144.86328 80.130859 L 150.76758 77.660156 L 150.76758 73.521484 L 144.86328 71.050781 L 140.61523 70.355469 L 139.01953 70.484375 L 138.18164 64.107422 L 139.75391 63.820312 L 143.67578 62.048828 L 148.74219 58.132812 L 147.66992 54.134766 L 141.32812 53.275391 L 137.04297 53.703125 L 135.53711 54.240234 L 133.07617 48.298828 L 134.51953 47.613281 L 137.85156 44.886719 L 141.73047 39.794922 L 139.66016 36.208984 L 133.3125 37.023438 L 129.28516 38.544922 L 127.96875 39.451172 L 124.05273 34.351562 L 125.27148 33.314453 L 127.7832 29.818359 L 130.21289 23.896484 L 127.28516 20.96875 L 121.36133 23.396484 L 117.86523 25.910156 L 116.83008 27.126953 L 111.73047 23.212891 L 112.63672 21.896484 L 114.1582 17.869141 L 114.9707 11.519531 L 111.38672 9.4492188 L 106.29297 13.328125 L 103.56641 16.660156 L 102.88086 18.105469 L 96.939453 15.644531 L 97.478516 14.136719 L 97.904297 9.8535156 L 97.046875 3.5117188 L 93.048828 2.4394531 L 89.134766 7.5039062 L 87.361328 11.425781 L 87.074219 13 L 80.697266 12.160156 L 80.826172 10.566406 L 80.130859 6.3183594 L 77.658203 0.41210938 L 73.519531 0.41210938 z M 71.042969 26.421875 L 71.042969 36.830078 A 39.092791 39.092791 0 0 0 36.958984 69.755859 L 26.535156 69.755859 A 49.566423 49.566416 0 0 1 71.042969 26.421875 z M 81.517578 26.542969 A 49.566423 49.566416 0 0 1 124.64453 69.755859 L 114.25195 69.755859 A 39.092791 39.092791 0 0 0 81.517578 36.990234 L 81.517578 26.542969 z M 71.042969 45.710938 L 71.042969 53.683594 A 22.238087 22.238087 0 0 0 54.410156 69.755859 L 45.691406 69.755859 A 30.704578 30.704578 0 0 1 71.042969 45.710938 z M 81.517578 45.886719 A 30.704578 30.704578 0 0 1 105.77344 69.755859 L 97.425781 69.755859 A 22.238087 22.238087 0 0 0 81.517578 53.861328 L 81.517578 45.886719 z M 26.431641 80.234375 L 36.810547 80.234375 A 39.092791 39.092791 0 0 0 71.042969 114.42773 L 71.042969 124.75781 A 49.566423 49.566416 0 0 1 26.431641 80.234375 z M 45.332031 80.234375 L 54.212891 80.234375 A 22.238087 22.238087 0 0 0 71.042969 97.076172 L 71.042969 106.35742 A 30.704578 30.704578 0 0 1 45.332031 80.234375 z M 97.609375 80.234375 L 106.10547 80.234375 A 30.704578 30.704578 0 0 1 81.517578 106.16797 L 81.517578 96.884766 A 22.238087 22.238087 0 0 0 97.609375 80.234375 z M 114.42188 80.234375 L 124.75 80.234375 A 49.566423 49.566416 0 0 1 81.517578 124.63672 L 81.517578 114.27148 A 39.092791 39.092791 0 0 0 114.42188 80.234375 z "
       transform="scale(0.26458333)" />
  </g>
</svg>
