<?xml version="1.0" encoding="UTF-8" standalone="no"?>
<!-- Created with Inkscape (http://www.inkscape.org/) -->

<svg
   width="40mm"
   height="40mm"
   viewBox="0 0 40 40"
   version="1.1"
   id="svg21567"
   inkscape:version="1.1.1 (3bf5ae0d25, 2021-09-20, custom)"
   sodipodi:docname="gear3.svg"
   xmlns:inkscape="http://www.inkscape.org/namespaces/inkscape"
   xmlns:sodipodi="http://sodipodi.sourceforge.net/DTD/sodipodi-0.dtd"
   xmlns="http://www.w3.org/2000/svg"
   xmlns:svg="http://www.w3.org/2000/svg">
  <sodipodi:namedview
     id="namedview21569"
     pagecolor="#ffffff"
     bordercolor="#999999"
     borderopacity="1"
     inkscape:pageshadow="0"
     inkscape:pageopacity="0"
     inkscape:pagecheckerboard="0"
     inkscape:document-units="mm"
     showgrid="false"
     inkscape:zoom="0.74208053"
     inkscape:cx="396.8572"
     inkscape:cy="561.93362"
     inkscape:window-width="1920"
     inkscape:window-height="1011"
     inkscape:window-x="1280"
     inkscape:window-y="32"
     inkscape:window-maximized="1"
     inkscape:current-layer="layer1" />
  <defs
     id="defs21564" />
  <g
     inkscape:label="Layer 1"
     inkscape:groupmode="layer"
     id="layer1">
    <path
       id="path16742"
       style="fill:#eee1a6;fill-opacity:1;stroke:#000000;stroke-width:0.218574;stroke-opacity:1"
       d="M 19.452709,0.10928713 18.798692,1.6713253 18.614695,2.7953623 18.648847,3.2171436 16.961724,3.4391322 16.88574,3.0233295 16.416997,1.9851003 15.380904,0.6450507 14.323038,0.92851333 14.095924,2.607098 l 0.113129,1.1334291 0.142159,0.3983 -1.571857,0.651028 L 12.597921,4.4077758 11.876455,3.5262213 10.529145,2.499946 9.5805666,3.0476633 9.7957274,4.7275268 10.198296,5.7930771 10.438216,6.1414305 9.0887742,7.1770979 8.8147035,6.8547876 7.889602,6.1900982 6.3224401,5.5476097 5.5480368,6.3220129 6.1905279,7.8891745 6.8552157,8.8142733 7.1775277,9.0883438 6.1418602,10.437786 5.7935067,10.197868 4.7279563,9.7952974 3.04809,9.5801361 2.5003726,10.528717 l 1.0262781,1.347307 0.8815545,0.721466 0.3820793,0.181434 -0.6510289,1.57186 -0.3987279,-0.142159 -1.1334293,-0.11313 -1.67815622,0.227112 -0.28346265,1.057866 1.34004727,1.036096 1.0378031,0.468739 0.4162315,0.07642 -0.2219911,1.686696 -0.4217788,-0.03415 -1.1240372,0.184422 -1.56246717,0.653588 v 1.095009 l 1.56246717,0.654014 1.1240372,0.183997 0.4217788,-0.03415 0.2219911,1.686695 -0.4162315,0.07642 -1.0378031,0.46874 -1.34004727,1.036094 0.28346265,1.057868 1.67815622,0.227112 1.1334293,-0.11313 0.3987279,-0.142159 0.6510289,1.57186 -0.3820793,0.181432 -0.8815545,0.721468 -1.0262781,1.347307 0.5477174,0.948578 1.6798663,-0.215158 1.0655504,-0.40257 0.3483535,-0.23992 1.0356675,1.349441 -0.322312,0.274072 -0.6646878,0.9251 -0.6424911,1.567162 0.7744033,0.774403 1.5671619,-0.642488 0.9251015,-0.66469 0.2740707,-0.322312 1.3494418,1.035667 -0.23992,0.348353 -0.4025686,1.065551 -0.2151608,1.679865 0.9485784,0.547718 1.34731,-1.026276 0.721466,-0.881556 0.181434,-0.382078 1.571857,0.651027 -0.142159,0.398728 -0.113129,1.133003 0.227114,1.678582 1.057866,0.283465 1.036093,-1.34005 0.468743,-1.038229 0.07598,-0.415805 1.687123,0.221991 -0.03415,0.421781 0.183997,1.124037 0.654017,1.562466 h 1.095006 l 0.65359,-1.562466 0.184422,-1.124037 -0.03415,-0.421781 1.686694,-0.221991 0.07641,0.415805 0.46874,1.038229 1.036095,1.34005 1.05744,-0.283465 0.227112,-1.678582 -0.11313,-1.133003 -0.14173,-0.398728 1.571853,-0.651027 0.181438,0.382078 0.721465,0.881556 1.347309,1.026276 0.948579,-0.547718 -0.215159,-1.679865 -0.402571,-1.065551 -0.24034,-0.348353 1.349861,-1.035667 0.27407,0.322312 0.925101,0.66469 1.56717,0.642488 0.774402,-0.774403 -0.642497,-1.567162 -0.664687,-0.9251 -0.322307,-0.274072 1.035667,-1.349441 0.348354,0.23992 1.065549,0.40257 1.679867,0.215158 0.547718,-0.948578 -1.026283,-1.347307 -0.881549,-0.721468 -0.382083,-0.181432 0.651031,-1.57186 0.3983,0.142159 1.133429,0.11313 1.678586,-0.227112 0.283463,-1.057868 -1.340055,-1.036094 -1.038229,-0.46874 -0.415805,-0.07642 0.221992,-1.686695 0.421778,0.03415 1.123615,-0.183997 1.562469,-0.654014 v -1.095009 l -1.562469,-0.653588 -1.123615,-0.184422 -0.421778,0.03415 -0.221992,-1.686696 0.415805,-0.07642 1.038229,-0.468739 1.340055,-1.036096 -0.283463,-1.057866 -1.678586,-0.227112 -1.133429,0.11313 -0.3983,0.142159 -0.651031,-1.57186 0.382083,-0.181434 0.881549,-0.721466 1.026283,-1.347307 L 36.95233,9.5801361 35.272463,9.7952974 34.206914,10.197868 33.858561,10.437786 32.822894,9.0883438 33.145201,8.8142733 33.809888,7.8891745 34.452385,6.3220129 33.677983,5.5476097 32.110813,6.1900982 31.185712,6.8547876 30.911642,7.1770979 29.561781,6.1414305 29.802121,5.7930771 30.204692,4.7275268 30.419851,3.0476633 29.471272,2.499946 28.123963,3.5262213 27.402498,4.4077758 27.22106,4.7898551 25.649207,4.1388271 25.790937,3.7405271 25.904072,2.607098 25.67696,0.92851333 24.61952,0.6450507 23.583425,1.9851003 23.114685,3.0233295 23.03827,3.4391322 21.351576,3.2171436 21.385727,2.7953623 21.201305,1.6713253 20.547715,0.10928713 Z m 0.554973,4.52304137 a 3.361839,3.3618385 0 0 1 3.361865,3.3618643 3.361839,3.3618385 0 0 1 -3.361865,3.3614352 3.361839,3.3618385 0 0 1 -3.361865,-3.3614352 3.361839,3.3618385 0 0 1 3.361865,-3.3618643 z m 6.810821,4.9747038 a 0.95822932,0.95822917 0 0 1 0.438002,0.2326619 0.95822932,0.95822917 0 0 1 0.04742,1.3545648 0.95822932,0.95822917 0 0 1 -1.354567,0.04696 0.95822932,0.95822917 0 0 1 -0.04696,-1.354137 0.95822932,0.95822917 0 0 1 0.916136,-0.2800485 z m -13.233584,0.018355 a 0.95822907,0.95822893 0 0 1 0.213025,0.024333 0.95822907,0.95822893 0 0 1 0.438003,0.2330896 0.95822907,0.95822893 0 0 1 0.04739,1.3541371 0.95822907,0.95822893 0 0 1 -1.354566,0.04739 0.95822907,0.95822893 0 0 1 -0.04696,-1.354566 0.95822907,0.95822893 0 0 1 0.703109,-0.3043801 z m 16.494697,3.0182067 a 0.95822932,0.95822917 0 0 1 0.248881,0.0239 0.95822932,0.95822917 0 0 1 0.438003,0.233091 0.95822932,0.95822917 0 0 1 0.04693,1.354136 0.95822932,0.95822917 0 0 1 -1.35414,0.04739 0.95822932,0.95822917 0 0 1 -0.04742,-1.354563 0.95822932,0.95822917 0 0 1 0.667678,-0.303956 z m -10.079619,0.07941 a 7.2767692,7.2767681 0 0 1 7.276996,7.276995 7.2767692,7.2767681 0 0 1 -7.276996,7.27657 7.2767692,7.2767681 0 0 1 -7.276568,-7.27657 7.2767692,7.2767681 0 0 1 7.276568,-7.276995 z m -9.511407,0.412814 a 0.95822907,0.95822893 0 0 1 0.248884,0.0239 0.95822907,0.95822893 0 0 1 0.438004,0.232662 0.95822907,0.95822893 0 0 1 0.04696,1.354566 0.95822907,0.95822893 0 0 1 -1.3541379,0.04696 0.95822907,0.95822893 0 0 1 -0.046956,-1.354138 0.95822907,0.95822893 0 0 1 0.6672519,-0.303957 z m -2.4675013,3.48268 a 3.361839,3.3618385 0 0 1 3.3618643,3.361864 3.361839,3.3618385 0 0 1 -3.3618643,3.361865 3.361839,3.3618385 0 0 1 -3.3618654,-3.361865 3.361839,3.3618385 0 0 1 3.3618654,-3.361864 z m 23.9731903,0 a 3.361839,3.3618385 0 0 1 3.361866,3.361864 3.361839,3.3618385 0 0 1 -3.361866,3.361865 3.361839,3.3618385 0 0 1 -3.361865,-3.361865 3.361839,3.3618385 0 0 1 3.361865,-3.361864 z m -1.836117,9.044801 a 0.95822924,0.95822909 0 0 1 0.213029,0.02476 0.95822924,0.95822909 0 0 1 0.438003,0.232662 0.95822924,0.95822909 0 0 1 0.04693,1.354565 0.95822924,0.95822909 0 0 1 -1.354133,0.04696 0.95822924,0.95822909 0 0 1 -0.04742,-1.354137 0.95822924,0.95822909 0 0 1 0.703531,-0.304808 z m -19.591023,0.492219 a 0.95822915,0.95822901 0 0 1 0.213025,0.02434 0.95822915,0.95822901 0 0 1 0.438003,0.233088 0.95822915,0.95822901 0 0 1 0.04739,1.35414 0.95822915,0.95822901 0 0 1 -1.3545653,0.04739 0.95822915,0.95822901 0 0 1 -0.046956,-1.354564 0.95822915,0.95822901 0 0 1 0.7031083,-0.304383 z m 9.440543,2.449572 a 3.361839,3.3618385 0 0 1 3.361865,3.361864 3.361839,3.3618385 0 0 1 -3.361865,3.361865 3.361839,3.3618385 0 0 1 -3.361865,-3.361865 3.361839,3.3618385 0 0 1 3.361865,-3.361864 z m 7.090012,0.567782 a 0.95822924,0.95822909 0 0 1 0.213029,0.02475 0.95822924,0.95822909 0 0 1 0.437573,0.233088 0.95822924,0.95822909 0 0 1 0.04742,1.354139 0.95822924,0.95822909 0 0 1 -1.354141,0.04739 0.95822924,0.95822909 0 0 1 -0.04742,-1.354563 0.95822924,0.95822909 0 0 1 0.703539,-0.304808 z m -13.056415,0.04398 a 0.95822915,0.95822901 0 0 1 0.248886,0.0239 0.95822915,0.95822901 0 0 1 0.438002,0.232664 0.95822915,0.95822901 0 0 1 0.04697,1.354563 0.95822915,0.95822901 0 0 1 -1.35414,0.04697 0.95822915,0.95822901 0 0 1 -0.04739,-1.354139 0.95822915,0.95822901 0 0 1 0.667677,-0.303953 z" />
  </g>
</svg>
