<?xml version="1.0" encoding="UTF-8" standalone="no"?>
<!-- Created with Inkscape (http://www.inkscape.org/) -->

<svg
   width="40mm"
   height="40mm"
   viewBox="0 0 40 40"
   version="1.1"
   id="svg21752"
   inkscape:version="1.1.1 (3bf5ae0d25, 2021-09-20, custom)"
   sodipodi:docname="gear4.svg"
   xmlns:inkscape="http://www.inkscape.org/namespaces/inkscape"
   xmlns:sodipodi="http://sodipodi.sourceforge.net/DTD/sodipodi-0.dtd"
   xmlns="http://www.w3.org/2000/svg"
   xmlns:svg="http://www.w3.org/2000/svg">
  <sodipodi:namedview
     id="namedview21754"
     pagecolor="#ffffff"
     bordercolor="#999999"
     borderopacity="1"
     inkscape:pageshadow="0"
     inkscape:pageopacity="0"
     inkscape:pagecheckerboard="0"
     inkscape:document-units="mm"
     showgrid="false"
     inkscape:zoom="0.74208053"
     inkscape:cx="396.8572"
     inkscape:cy="-84.896447"
     inkscape:window-width="1920"
     inkscape:window-height="1011"
     inkscape:window-x="1280"
     inkscape:window-y="32"
     inkscape:window-maximized="1"
     inkscape:current-layer="layer1" />
  <defs
     id="defs21749" />
  <g
     inkscape:label="Layer 1"
     inkscape:groupmode="layer"
     id="layer1">
    <path
       id="path21676"
       style="fill:#eee1a6;fill-opacity:1;stroke:#000000;stroke-width:0.40427"
       d="M 19.120786,0.20213502 17.782438,3.1591487 17.680524,4.2077206 17.942659,5.9945679 14.777982,6.8425808 14.111566,5.1639124 13.499636,4.3064261 10.861613,2.4153572 9.3400639,3.2941737 9.6590696,6.5235905 10.094917,7.4829453 11.216144,8.8994783 8.899479,11.216128 7.4821666,10.094917 6.5236063,9.6590535 3.2933794,9.3400632 l -0.878022,1.5215488 1.8910691,2.638024 0.8567071,0.611929 1.6794631,0.666416 -0.8480284,3.165472 -1.7876267,-0.262946 -1.048572,0.101915 -2.95623458,1.339158 v 1.756839 l 2.95623458,1.338348 1.048572,0.101915 1.7876267,-0.262135 0.8480284,3.164678 -1.6794631,0.666415 -0.8567071,0.612724 -1.8910691,2.637229 0.878022,1.522328 3.2302269,-0.319785 0.9585603,-0.435848 1.4173124,-1.12121 2.316665,2.317443 -1.121227,1.416518 -0.4358474,0.958577 -0.3190057,3.230211 1.5215491,0.878816 2.638023,-1.891864 0.61193,-0.856707 0.666416,-1.679463 3.164677,0.848029 -0.262135,1.787626 0.101914,1.048588 1.338348,2.957013 h 1.757633 l 1.338348,-2.957013 0.101914,-1.048588 -0.262136,-1.787626 3.164679,-0.848029 0.666416,1.679463 0.612724,0.856707 2.637228,1.891864 1.52155,-0.878816 -0.319006,-3.230211 -0.435848,-0.958577 -1.121226,-1.416518 2.316665,-2.317443 1.417312,1.12121 0.958576,0.435848 3.230211,0.319785 0.878817,-1.522328 -1.891879,-2.637229 -0.856692,-0.612724 -1.679464,-0.666415 0.848029,-3.164678 1.787642,0.262135 1.048573,-0.101915 2.957013,-1.338348 V 19.12158 l -2.957013,-1.339158 -1.048573,-0.101915 -1.787642,0.262946 -0.848029,-3.165472 1.679464,-0.666416 0.856692,-0.611929 1.891879,-2.638024 L 36.705826,9.3400632 33.475615,9.6590535 32.517039,10.094917 31.099727,11.216128 28.783062,8.8994783 29.904288,7.4829453 30.340136,6.5235905 30.659142,3.2941737 29.137592,2.4153572 26.500364,4.3064261 25.88764,5.1639124 25.221224,6.8425808 22.056545,5.9945679 22.318681,4.2077206 22.216767,3.1591487 20.878419,0.20213502 Z M 19.999603,11.443533 a 8.5561381,8.5561374 0 0 1 8.556008,8.556007 8.5561381,8.5561374 0 0 1 -8.556008,8.556007 8.5561381,8.5561374 0 0 1 -8.556008,-8.556007 8.5561381,8.5561374 0 0 1 8.556008,-8.556007 z" />
  </g>
</svg>
